# xmcd
#
# Track frame offsets: 
#        150
#        23942
#        50035
#        72287
#        92275
#        111835
#        131725
#        153500
#        182862
#        221322
#        253190
#        276500
#        296620
#        318515
#
# Disc length: 4546 seconds
#
# Revision: 10
# Processed by: cddbd v1.5.2PL0 Copyright (c) Steve Scherf et al.
# Submitted via: ExactAudioCopyFreeDBPlugin 1.0
#
DISCID=d711c00e
DTITLE=The Isley Brothers - Eternal
DYEAR=2001
DGENRE=Rhythm and Blues
TTITLE0=Move Your Body
TTITLE1=Contagious
TTITLE2=Warm Summer Night
TTITLE3=You Deserve Better
TTITLE4=Just Like This
TTITLE5=Secret Lover
TTITLE6=You're All I Need
TTITLE7=Settle Down
TTITLE8=Eternal
TTITLE9=If You Leave Me Now
TTITLE10=Said Enough (ft Jill Scott)
TTITLE11=You Didn't See Me
TTITLE12=Ernie's Jam
TTITLE13=Think
EXTD=
EXTT0=
EXTT1=
EXTT2=
EXTT3=
EXTT4=
EXTT5=
EXTT6=
EXTT7=
EXTT8=
EXTT9=
EXTT10=
EXTT11=
EXTT12=
EXTT13=
PLAYORDER=
